<?xml version="1.0" encoding="UTF-8" standalone="no"?><!DOCTYPE svg PUBLIC "-//W3C//DTD SVG 1.1//EN" "http://www.w3.org/Graphics/SVG/1.1/DTD/svg11.dtd">
<svg width="100%" height="100%" viewBox="0 0 1920 1080" version="1.1" xmlns="http://www.w3.org/2000/svg"
     xml:space="preserve" xmlns:serif="http://www.serif.com/"
     style="fill-rule:evenodd;clip-rule:evenodd;stroke-linecap:round;stroke-linejoin:round;stroke-miterlimit:1.5;"><g id="Layer1"><g id="bubbles"><circle cx="1625.92" cy="167.251" r="6.251" style="fill:#666;"/><circle cx="1650.92" cy="167.251" r="6.251" style="fill:#666;"/><circle cx="1600.92" cy="192.253" r="6.251" style="fill:#666;"/><circle cx="1625.92" cy="192.253" r="6.251" style="fill:#666;"/><circle cx="1650.92" cy="192.253" r="6.251" style="fill:#666;"/><circle cx="1600.92" cy="217.256" r="6.251" style="fill:#666;"/><circle cx="1625.92" cy="217.256" r="6.251" style="fill:#666;"/><circle cx="1650.92" cy="217.256" r="6.251" style="fill:#666;"/><circle cx="1600.92" cy="167.251" r="6.251" style="fill:#666;"/></g><g id="bubbles1" serif:id="bubbles"><circle cx="1550.91" cy="167.251" r="6.251" style="fill:#666;"/><circle cx="1575.91" cy="167.251" r="6.251" style="fill:#666;"/><circle cx="1525.91" cy="192.253" r="6.251" style="fill:#666;"/><circle cx="1550.91" cy="192.253" r="6.251" style="fill:#666;"/><circle cx="1575.91" cy="192.253" r="6.251" style="fill:#666;"/><circle cx="1525.91" cy="217.256" r="6.251" style="fill:#666;"/><circle cx="1550.91" cy="217.256" r="6.251" style="fill:#666;"/><circle cx="1575.91" cy="217.256" r="6.251" style="fill:#666;"/><circle cx="1525.91" cy="167.251" r="6.251" style="fill:#666;"/></g><g id="bubbles2" serif:id="bubbles"><circle cx="231" cy="599.2" r="5.2" style="fill:#666;"/><circle cx="251.8" cy="599.2" r="5.2" style="fill:#666;"/><circle cx="210.2" cy="620" r="5.2" style="fill:#666;"/><circle cx="231" cy="620" r="5.2" style="fill:#666;"/><circle cx="251.8" cy="620" r="5.2" style="fill:#666;"/><circle cx="210.2" cy="640.8" r="5.2" style="fill:#666;"/><circle cx="231" cy="640.8" r="5.2" style="fill:#666;"/><circle cx="251.8" cy="640.8" r="5.2" style="fill:#666;"/><circle cx="210.2" cy="599.2" r="5.2" style="fill:#666;"/></g><g id="left"><g id="arrow"><path d="M225.214,656.029l-23.185,23.185l7.729,7.729l23.185,-23.185l-7.729,-7.729Z" style="fill:#666;"/><path d="M232.943,694.671l-23.185,-23.185l-7.729,7.728l23.185,23.185l7.729,-7.728Z" style="fill:#666;"/></g><g id="arrow1" serif:id="arrow"><path d="M256.127,656.029l-23.184,23.185l7.728,7.729l23.185,-23.185l-7.729,-7.729Z" style="fill:#666;"/><path d="M263.856,694.671l-23.185,-23.185l-7.728,7.728l23.184,23.185l7.729,-7.728Z" style="fill:#666;"/></g><g id="arrow2" serif:id="arrow"><path d="M287.041,656.029l-23.185,23.185l7.728,7.729l23.185,-23.185l-7.728,-7.729Z" style="fill:#666;"/><path d="M294.769,694.671l-23.185,-23.185l-7.728,7.728l23.185,23.185l7.728,-7.728Z" style="fill:#666;"/></g></g><g id="up"><g id="arrow3" serif:id="arrow"><path d="M1507.16,153.952l-23.185,-23.185l-7.728,7.728l23.184,23.185l7.729,-7.728Z" style="fill:#666;"/><path d="M1468.52,161.68l23.185,-23.185l-7.728,-7.728l-23.185,23.185l7.728,7.728Z" style="fill:#666;"/></g><g id="arrow4" serif:id="arrow"><path d="M1507.16,184.865l-23.185,-23.185l-7.728,7.728l23.184,23.185l7.729,-7.728Z" style="fill:#666;"/><path d="M1468.52,192.593l23.185,-23.185l-7.728,-7.728l-23.185,23.185l7.728,7.728Z" style="fill:#666;"/></g><g id="arrow5" serif:id="arrow"><path d="M1507.16,215.778l-23.185,-23.185l-7.728,7.729l23.184,23.184l7.729,-7.728Z" style="fill:#666;"/><path d="M1468.52,223.506l23.185,-23.184l-7.728,-7.729l-23.185,23.185l7.728,7.728Z" style="fill:#666;"/></g></g><circle cx="602.062" cy="164" r="16" style="fill:#666;"/><path d="M549,427l25,50l-50,0l25,-50Z" style="fill:#666;fill-opacity:0;stroke:#666;stroke-width:8.33px;"/><path d="M1408.5,646l25,50l-50,0l25,-50Z" style="fill:#666;fill-opacity:0;stroke:#666;stroke-width:8.33px;"/><g id="x"><path d="M1546.3,469.524c1.073,-1.073 1.073,-2.816 0,-3.889l-37.83,-37.83c-1.073,-1.073 -2.816,-1.073 -3.889,0l-3.889,3.889c-1.073,1.073 -1.073,2.816 0,3.889l37.83,37.83c1.073,1.074 2.816,1.074 3.889,0l3.889,-3.889Z" style="fill:#666;"/><path d="M1504.59,473.413c1.073,1.074 2.816,1.074 3.889,0l37.83,-37.83c1.073,-1.073 1.073,-2.816 0,-3.889l-3.889,-3.889c-1.073,-1.073 -2.816,-1.073 -3.889,0l-37.83,37.83c-1.073,1.073 -1.073,2.816 0,3.889l3.889,3.889Z" style="fill:#666;"/></g><g id="x1" serif:id="x"><path d="M880.195,445.915c1.073,-1.073 1.073,-2.816 0,-3.889l-37.83,-37.83c-1.073,-1.073 -2.816,-1.073 -3.889,0l-3.889,3.889c-1.074,1.073 -1.074,2.816 0,3.889l37.83,37.83c1.073,1.073 2.816,1.073 3.889,0l3.889,-3.889Z" style="fill:#666;"/><path d="M838.476,449.804c1.073,1.073 2.816,1.073 3.889,0l37.83,-37.83c1.073,-1.073 1.073,-2.816 0,-3.889l-3.889,-3.889c-1.073,-1.073 -2.816,-1.073 -3.889,0l-37.83,37.83c-1.074,1.073 -1.074,2.816 0,3.889l3.889,3.889Z" style="fill:#666;"/></g><circle cx="1355.5" cy="942" r="16" style="fill:#666;"/><circle cx="1115.5" cy="524" r="16" style="fill:#666;"/><circle cx="817.782" cy="1011.6" r="16" style="fill:#666;"/><circle cx="346.5" cy="903" r="16" style="fill:#666;"/><path d="M241,192.5c0,-6.899 -5.601,-12.5 -12.5,-12.5l-25,0c-6.899,0 -12.5,5.601 -12.5,12.5l0,25c0,6.899 5.601,12.5 12.5,12.5l25,0c6.899,0 12.5,-5.601 12.5,-12.5l0,-25Z" style="fill:#666;fill-opacity:0;stroke:#666;stroke-width:8.33px;"/><path d="M1088,750.5c0,-6.899 -5.601,-12.5 -12.5,-12.5l-25,0c-6.899,0 -12.5,5.601 -12.5,12.5l0,25c0,6.899 5.601,12.5 12.5,12.5l25,0c6.899,0 12.5,-5.601 12.5,-12.5l0,-25Z" style="fill:#666;fill-opacity:0;stroke:#666;stroke-width:8.33px;"/><g id="buble"><g opacity="0.75"><path d="M638.323,827.407c0.029,-0.727 -0.247,-1.436 -0.756,-1.959c-0.516,-0.52 -1.222,-0.803 -1.952,-0.782c-15.172,0.611 -28.371,11.009 -32.356,25.882c-4.991,18.625 6.077,37.795 24.703,42.786c18.625,4.991 37.795,-6.077 42.786,-24.703c2.158,-8.053 1.358,-16.579 -2.201,-24.055c-0.318,-0.641 -0.886,-1.123 -1.57,-1.33c-0.679,-0.205 -1.418,-0.121 -2.036,0.236c-0.027,-0.007 -0.043,0.003 -0.06,0.013c-1.198,0.691 -1.651,2.19 -1.041,3.427c3.005,6.324 3.672,13.538 1.846,20.353c-4.242,15.831 -20.537,25.239 -36.368,20.997c-15.831,-4.242 -25.239,-20.537 -20.997,-36.368c3.383,-12.627 14.579,-21.457 27.449,-21.983c1.377,-0.041 2.481,-1.139 2.538,-2.513l0.015,-0.001Z" style="fill:#666;"/><path d="M661.724,838.933c0.558,-0.467 0.899,-1.144 0.939,-1.872c0.039,-0.724 -0.223,-1.435 -0.721,-1.964c-3.728,-3.768 -8.253,-6.652 -13.245,-8.428c-0.678,-0.229 -1.419,-0.168 -2.052,0.171c-0.631,0.335 -1.095,0.922 -1.279,1.611c-0.021,0.009 -0.025,0.022 -0.03,0.04c-0.356,1.331 0.379,2.715 1.686,3.164c4.198,1.487 8.002,3.915 11.127,7.088c0.945,0.988 2.491,1.072 3.54,0.195c0.018,0.005 0.028,0.003 0.035,-0.005Z" style="fill:#666;"/></g></g><g id="buble1" serif:id="buble"><g opacity="0.75"><path d="M1035.66,210.571c-0.935,-0.292 -1.955,-0.18 -2.812,0.301c-0.856,0.489 -1.471,1.309 -1.698,2.267c-4.494,19.95 4.432,40.745 22.392,51.114c22.49,12.985 51.287,5.269 64.272,-17.222c12.985,-22.49 5.269,-51.287 -17.221,-64.272c-9.726,-5.615 -21.096,-7.547 -32.062,-5.523c-0.945,0.19 -1.77,0.761 -2.277,1.579c-0.505,0.812 -0.652,1.802 -0.403,2.731c-0.018,0.032 -0.012,0.057 -0.005,0.082c0.482,1.8 2.274,2.912 4.096,2.549c9.275,-1.705 18.893,-0.057 27.122,4.694c19.116,11.036 25.675,35.515 14.638,54.631c-11.036,19.116 -35.515,25.676 -54.631,14.639c-15.249,-8.804 -22.833,-26.447 -19.031,-43.373c0.427,-1.805 -0.617,-3.624 -2.384,-4.178l0.004,-0.019Z" style="fill:#666;"/><path d="M1058.81,184.146c-0.413,-0.89 -1.174,-1.569 -2.108,-1.875c-0.928,-0.303 -1.944,-0.21 -2.806,0.254c-6.202,3.536 -11.531,8.418 -15.581,14.293c-0.534,0.802 -0.714,1.787 -0.493,2.728c0.215,0.938 0.817,1.746 1.65,2.227c0.004,0.03 0.02,0.039 0.041,0.051c1.608,0.929 3.665,0.454 4.704,-1.09c3.398,-4.942 7.883,-9.045 13.099,-12.004c1.615,-0.885 2.264,-2.867 1.489,-4.538c0.012,-0.021 0.013,-0.035 0.005,-0.046Z" style="fill:#666;"/></g></g><g id="buble2" serif:id="buble"><g opacity="0.75"><path d="M1756.68,871.18c1.214,1.046 2.817,1.541 4.418,1.376c1.603,-0.179 3.058,-1.01 4.023,-2.301c19.714,-27.04 19.823,-64.069 -0.408,-91.311c-25.335,-34.116 -73.595,-41.244 -107.711,-15.908c-34.116,25.335 -41.244,73.595 -15.908,107.711c10.955,14.752 26.776,25.042 44.558,29.13c1.543,0.328 3.152,0.007 4.446,-0.891c1.285,-0.892 2.15,-2.284 2.38,-3.84c0.048,-0.036 0.054,-0.078 0.06,-0.12c0.446,-3.016 -1.522,-5.85 -4.494,-6.49c-15.037,-3.467 -28.409,-12.192 -37.679,-24.675c-21.534,-28.997 -15.475,-70.02 13.522,-91.554c28.998,-21.534 70.02,-15.476 91.555,13.522c17.177,23.13 17.1,54.553 0.391,77.501c-1.814,2.434 -1.43,5.844 0.865,7.824l-0.018,0.026Z" style="fill:#666;"/><path d="M1704.74,895.817c0.042,1.604 0.743,3.119 1.947,4.186c1.198,1.058 2.783,1.579 4.38,1.442c11.611,-1.28 22.787,-5.147 32.686,-11.338c1.324,-0.858 2.234,-2.221 2.514,-3.777c0.286,-1.549 -0.093,-3.152 -1.031,-4.416c0.014,-0.048 -0.004,-0.072 -0.028,-0.104c-1.811,-2.439 -5.208,-3.063 -7.772,-1.421c-8.316,5.214 -17.716,8.462 -27.473,9.514c-3.001,0.281 -5.263,2.834 -5.185,5.848c-0.032,0.024 -0.042,0.044 -0.038,0.066Z" style="fill:#888;"/></g></g></g></svg>