<?xml version="1.0" encoding="UTF-8" standalone="no"?><!DOCTYPE svg PUBLIC "-//W3C//DTD SVG 1.1//EN" "http://www.w3.org/Graphics/SVG/1.1/DTD/svg11.dtd">
<svg width="100%" height="100%" viewBox="0 0 4150 2820" version="1.1" xmlns="http://www.w3.org/2000/svg"
     xml:space="preserve" xmlns:serif="http://www.serif.com/"
     style="fill-rule:evenodd;clip-rule:evenodd;stroke-linecap:round;stroke-linejoin:round;stroke-miterlimit:1.5;"><g id="body"><path id="tail" d="M418.032,1348.57c17.128,-270.245 -242.286,-529.32 -325.781,-679.969c-128.595,-232.021 43.632,-445.43 122.054,-506.081c157.73,-121.987 380.153,-97.852 518.991,-5.728c107.254,71.166 206.76,211.865 257.396,285.762" style="fill:url(#_Radial1);"/><path id="core" d="M459.424,1115.09c-91.774,372.115 -116.359,1063.93 346.849,1363.23c451.844,291.957 1474.57,311.503 2007.15,279.076c337.928,-20.575 978.512,-123.16 1185.44,-540.886c138.819,-242.024 100.702,-1015.64 -123.799,-1368.34c-155.539,-301.939 -425.443,-537.15 -785.825,-639.458c-624.479,-174.498 -1524.88,-100.531 -2037.93,196.061c-102.082,61.253 -201.102,128.025 -293.807,216.792c-114.639,109.77 -253.762,313.852 -298.075,493.528Z" style="fill:url(#_Radial2);"/></g><path id="mouth" d="M2918.87,1943.95c0.009,0.132 15.468,109.247 119.749,95.341c107.407,-14.324 95.341,-119.75 95.341,-119.75c0,0 11.872,105.431 119.75,95.341c104.299,-9.755 95.384,-119.36 95.341,-119.75" style="fill:none;stroke:#000;stroke-opacity:0.752941;stroke-width:20px;"/><g id="r_eye"><ellipse id="iris" cx="3680.06" cy="1623.05" rx="284.526" ry="324.062" style="fill:url(#_Radial3);stroke:#414c64;stroke-width:4.29px;"/><ellipse id="pupil" cx="3711.38" cy="1600.61" rx="188.48" ry="264.858" style="fill:url(#_Linear4);"/><g id="sparkles"><ellipse id="medium_sparkle" cx="3746.71" cy="1409.6" rx="35.328" ry="35.956" style="fill:#fff;"/><ellipse id="small_sparkle" cx="3799.7" cy="1463.53" rx="17.664" ry="17.978" style="fill:#fff;"/></g></g><g id="l_eye"><ellipse id="iris1" serif:id="iris" cx="2475.75" cy="1742.53" rx="327.45" ry="336.798" style="fill:url(#_Radial5);stroke:#414c64;stroke-width:4.29px;"/><ellipse id="pupil1" serif:id="pupil" cx="2511.8" cy="1719.2" rx="216.915" ry="275.267" style="fill:url(#_Linear6);"/><g id="sparkles1" serif:id="sparkles"><ellipse id="medium_sparkle1" serif:id="medium_sparkle" cx="2552.46" cy="1520.69" rx="40.657" ry="37.369" style="fill:#fff;"/><ellipse id="small_sparkle1" serif:id="small_sparkle" cx="2613.44" cy="1576.74" rx="20.329" ry="18.685" style="fill:#fff;"/></g></g><path id="l_ear" d="M1703.24,118.589c-106.472,39.877 -100.661,557.434 6.972,621.068c107.634,63.633 606.084,-145.979 638.832,-239.264c57.425,-163.581 -539.332,-421.681 -645.804,-381.804Z" style="fill:url(#_Linear7);"/><path id="r_ear" d="M2834.91,36.107c-81.655,26.159 -95.913,415.751 -17.38,468.086c79.168,52.758 463.026,-85.317 489.931,-156.951c46.151,-122.875 -390.896,-337.293 -472.551,-311.135Z" style="fill:url(#_Linear8);"/><defs><radialGradient id="_Radial1" cx="0" cy="0" r="1" gradientUnits="userSpaceOnUse" gradientTransform="matrix(823.862,0,0,823.862,220.155,164.678)"><stop offset="0" style="stop-color:#cbdaf8;stop-opacity:1"/><stop offset="0.56" style="stop-color:#bdcef6;stop-opacity:1"/><stop offset="1" style="stop-color:#869dee;stop-opacity:1"/></radialGradient><radialGradient id="_Radial2" cx="0" cy="0" r="1" gradientUnits="userSpaceOnUse" gradientTransform="matrix(3516.79,0,0,3516.79,820.888,579.941)"><stop offset="0" style="stop-color:#cbdaf8;stop-opacity:1"/><stop offset="0.57" style="stop-color:#becef6;stop-opacity:1"/><stop offset="0.8" style="stop-color:#a1b5f2;stop-opacity:1"/><stop offset="1" style="stop-color:#869dee;stop-opacity:1"/></radialGradient><radialGradient id="_Radial3" cx="0" cy="0" r="1" gradientUnits="userSpaceOnUse" gradientTransform="matrix(648.863,0,0,648.863,3680.06,1298.98)"><stop offset="0" style="stop-color:#82b2c9;stop-opacity:1"/><stop offset="1" style="stop-color:#bee0f0;stop-opacity:1"/></radialGradient><linearGradient id="_Linear4" x1="0" y1="0" x2="1" y2="0" gradientUnits="userSpaceOnUse" gradientTransform="matrix(3.06829e-13,-529.715,421.836,3.85297e-13,3711.38,1865.46)"><stop offset="0" style="stop-color:#333;stop-opacity:1"/><stop offset="1" style="stop-color:#000;stop-opacity:1"/></linearGradient><radialGradient id="_Radial5" cx="0" cy="0" r="1" gradientUnits="userSpaceOnUse" gradientTransform="matrix(673.596,0,0,673.596,2475.75,1405.73)"><stop offset="0" style="stop-color:#82b2c9;stop-opacity:1"/><stop offset="1" style="stop-color:#bee0f0;stop-opacity:1"/></radialGradient><linearGradient id="_Linear6" x1="0" y1="0" x2="1" y2="0" gradientUnits="userSpaceOnUse" gradientTransform="matrix(3.53119e-13,-550.533,485.476,4.00439e-13,2511.8,1994.47)"><stop offset="0" style="stop-color:#333;stop-opacity:1"/><stop offset="1" style="stop-color:#000;stop-opacity:1"/></linearGradient><linearGradient id="_Linear7" x1="0" y1="0" x2="1" y2="0" gradientUnits="userSpaceOnUse" gradientTransform="matrix(-258.497,-561.35,561.35,-258.497,2063,676.994)"><stop offset="0" style="stop-color:#c7d7f7;stop-opacity:1"/><stop offset="0.44" style="stop-color:#b3c5f4;stop-opacity:1"/><stop offset="1" style="stop-color:#869dee;stop-opacity:1"/></linearGradient><linearGradient id="_Linear8" x1="0" y1="0" x2="1" y2="0" gradientUnits="userSpaceOnUse" gradientTransform="matrix(168.267,-436.708,436.708,168.267,2869.94,515.929)"><stop offset="0" style="stop-color:#becff6;stop-opacity:1"/><stop offset="0.47" style="stop-color:#aec1f4;stop-opacity:1"/><stop offset="1" style="stop-color:#869dee;stop-opacity:1"/></linearGradient></defs></svg>